<svg width="21" height="21" viewBox="0 0 21 21" fill="none" xmlns="http://www.w3.org/2000/svg">
<path d="M7.29224 19.1396C7.6029 19.1396 7.85474 18.8878 7.85474 18.5771C7.85474 18.2665 7.6029 18.0146 7.29224 18.0146C6.98158 18.0146 6.72974 18.2665 6.72974 18.5771C6.72974 18.8878 6.98158 19.1396 7.29224 19.1396Z" fill="#22262A" stroke="#22262A" stroke-width="2" stroke-miterlimit="10" stroke-linecap="round" stroke-linejoin="round"/>
<path d="M15.1672 19.1396C15.4779 19.1396 15.7297 18.8878 15.7297 18.5771C15.7297 18.2665 15.4779 18.0146 15.1672 18.0146C14.8566 18.0146 14.6047 18.2665 14.6047 18.5771C14.6047 18.8878 14.8566 19.1396 15.1672 19.1396Z" fill="#22262A" stroke="#22262A" stroke-width="2" stroke-miterlimit="10" stroke-linecap="round" stroke-linejoin="round"/>
<path d="M1.10474 1.13965H3.35474L5.60474 14.6396H16.8547L19.1047 4.51465H4.47974" stroke="#22262A" stroke-width="2" stroke-linecap="round" stroke-linejoin="round"/>
</svg>
